<svg width="1200" height="760" viewBox="0 0 1200 760" xmlns="http://www.w3.org/2000/svg" role="img" aria-labelledby="title desc">
  <title id="title">Plan Enforcer benchmark summary</title>
  <desc id="desc">Benchmark summary showing execution parity, carryover moat, planning ambiguity, and large trust runtime.</desc>

  <defs>
    <linearGradient id="bg" x1="0" y1="0" x2="1200" y2="760" gradientUnits="userSpaceOnUse">
      <stop offset="0" stop-color="#0d1117"/>
      <stop offset="1" stop-color="#161b22"/>
    </linearGradient>
    <filter id="shadow" x="-20%" y="-20%" width="140%" height="160%">
      <feDropShadow dx="0" dy="6" stdDeviation="10" flood-color="#000" flood-opacity="0.4"/>
    </filter>
    <style>
      .sans { font-family: "IBM Plex Sans", "Segoe UI", Arial, sans-serif; }
      .mono { font-family: "IBM Plex Mono", "Cascadia Code", Consolas, monospace; }
      .eyebrow { font-size: 13px; font-weight: 700; letter-spacing: 0.14em; text-transform: uppercase; fill: #8b949e; }
      .title { font-size: 26px; font-weight: 700; letter-spacing: -0.02em; fill: #e6edf3; }
      .subtitle { font-size: 14px; font-weight: 500; fill: #8b949e; }
      .step-num { font-size: 11px; font-weight: 700; fill: #8957e5; letter-spacing: 0.1em; text-transform: uppercase; }
      .step-title { font-size: 18px; font-weight: 700; fill: #e6edf3; }
      .label { font-size: 12px; font-weight: 600; fill: #c9d1d9; }
      .small { font-size: 11px; font-weight: 500; fill: #8b949e; }
      .value { font-size: 12px; font-weight: 700; fill: #e6edf3; }
      .big { font-size: 26px; font-weight: 700; fill: #e6edf3; }
      .card { fill: #1c2128; stroke: #30363d; stroke-width: 1.5; }
      .card-active { fill: #1c2128; stroke: #8957e5; stroke-width: 1.5; }
      .footer { font-size: 11px; font-weight: 500; fill: #6e7681; }
    </style>
  </defs>

  <rect width="1200" height="760" fill="url(#bg)"/>

  <text x="60" y="54" class="sans eyebrow">Benchmark summary</text>
  <text x="60" y="84" class="sans title">What the benchmark actually says.</text>
  <text x="60" y="108" class="sans subtitle">Execution is credible. Planning is competitive. Carryover is the repeated moat.</text>

  <g transform="translate(40, 160)">
    <rect width="540" height="230" rx="10" class="card" filter="url(#shadow)"/>
    <text x="22" y="34" class="sans step-num">Execution parity</text>
    <text x="22" y="62" class="sans step-title">Bounded work is not the problem.</text>
    <line x1="22" y1="76" x2="518" y2="76" stroke="#30363d" stroke-width="1"/>

    <text x="22" y="106" class="sans label">Plan Enforcer</text>
    <rect x="150" y="94" width="330" height="16" rx="8" fill="#11161c" stroke="#30363d" stroke-width="1"/>
    <rect x="150" y="94" width="330" height="16" rx="8" fill="#3fb950"/>
    <text x="492" y="106" class="sans value" text-anchor="end">24 / 24</text>

    <text x="22" y="138" class="sans label">GSD</text>
    <rect x="150" y="126" width="330" height="16" rx="8" fill="#11161c" stroke="#30363d" stroke-width="1"/>
    <rect x="150" y="126" width="330" height="16" rx="8" fill="#58a6ff"/>
    <text x="492" y="138" class="sans value" text-anchor="end">24 / 24</text>

    <text x="22" y="170" class="sans label">Superpowers</text>
    <rect x="150" y="158" width="330" height="16" rx="8" fill="#11161c" stroke="#30363d" stroke-width="1"/>
    <rect x="150" y="158" width="330" height="16" rx="8" fill="#d29922"/>
    <text x="492" y="170" class="sans value" text-anchor="end">24 / 24</text>

    <text x="22" y="204" class="sans small">Small phased benchmark: all three finish bounded work.</text>
  </g>

  <g transform="translate(620, 160)">
    <rect width="540" height="230" rx="10" class="card-active" filter="url(#shadow)"/>
    <text x="22" y="34" class="sans step-num">Carryover moat</text>
    <text x="22" y="62" class="sans step-title">Repaired-contract preservation separates.</text>
    <line x1="22" y1="76" x2="518" y2="76" stroke="#30363d" stroke-width="1"/>

    <text x="22" y="106" class="sans label">Plan Enforcer</text>
    <rect x="180" y="94" width="300" height="20" rx="10" fill="#11161c" stroke="#30363d" stroke-width="1"/>
    <rect x="180" y="94" width="300" height="20" rx="10" fill="#3fb950"/>
    <text x="492" y="108" class="sans value" text-anchor="end">172 / 172</text>

    <text x="22" y="142" class="sans label">GSD</text>
    <rect x="180" y="130" width="300" height="20" rx="10" fill="#11161c" stroke="#30363d" stroke-width="1"/>
    <rect x="180" y="130" width="213" height="20" rx="10" fill="#58a6ff"/>
    <text x="492" y="144" class="sans value" text-anchor="end">122 / 172</text>

    <text x="22" y="178" class="sans label">Superpowers</text>
    <rect x="180" y="166" width="300" height="20" rx="10" fill="#11161c" stroke="#30363d" stroke-width="1"/>
    <rect x="180" y="166" width="218" height="20" rx="10" fill="#d29922"/>
    <text x="492" y="180" class="sans value" text-anchor="end">125 / 172</text>

    <text x="22" y="212" class="sans small">H through L and resume pressure. Same ask, harder truth.</text>
  </g>

  <g transform="translate(40, 430)">
    <rect width="540" height="240" rx="10" class="card" filter="url(#shadow)"/>
    <text x="22" y="34" class="sans step-num">Planning ambiguity</text>
    <text x="22" y="62" class="sans step-title">Competitive, not blanket best.</text>
    <line x1="22" y1="76" x2="518" y2="76" stroke="#30363d" stroke-width="1"/>

    <text x="40" y="106" class="sans label">Scenario B stage score</text>

    <rect x="60" y="130" width="96" height="110" rx="10" fill="#11161c" stroke="#30363d" stroke-width="1"/>
    <rect x="84" y="164" width="48" height="56" rx="8" fill="#3fb950"/>
    <text x="108" y="156" class="sans value" text-anchor="middle">3 / 3</text>
    <text x="108" y="262" class="sans small" text-anchor="middle">PE</text>

    <rect x="188" y="130" width="96" height="110" rx="10" fill="#11161c" stroke="#30363d" stroke-width="1"/>
    <rect x="212" y="183" width="48" height="37" rx="8" fill="#58a6ff"/>
    <text x="236" y="175" class="sans value" text-anchor="middle">2 / 3</text>
    <text x="236" y="262" class="sans small" text-anchor="middle">GSD</text>

    <rect x="316" y="130" width="96" height="110" rx="10" fill="#11161c" stroke="#30363d" stroke-width="1"/>
    <rect x="340" y="183" width="48" height="37" rx="8" fill="#d29922"/>
    <text x="364" y="175" class="sans value" text-anchor="middle">2 / 3</text>
    <text x="364" y="262" class="sans small" text-anchor="middle">SP</text>

    <text x="40" y="290" class="sans small">Interpretation, plan, and review under ambiguity.</text>
    <text x="40" y="306" class="sans small">Fair claim: competitive authorship, not universal win.</text>
  </g>

  <g transform="translate(620, 430)">
    <rect width="540" height="240" rx="10" class="card" filter="url(#shadow)"/>
    <text x="22" y="34" class="sans step-num">Large trust runtime</text>
    <text x="22" y="62" class="sans step-title">Large phased work stays respectable.</text>
    <line x1="22" y1="76" x2="518" y2="76" stroke="#30363d" stroke-width="1"/>

    <text x="22" y="104" class="sans label">Lower is better</text>

    <text x="22" y="140" class="sans label">Plan Enforcer</text>
    <rect x="170" y="128" width="300" height="16" rx="8" fill="#11161c" stroke="#30363d" stroke-width="1"/>
    <rect x="170" y="128" width="223" height="16" rx="8" fill="#3fb950"/>
    <text x="486" y="140" class="sans value" text-anchor="end">92m 52s</text>

    <text x="22" y="172" class="sans label">GSD</text>
    <rect x="170" y="160" width="300" height="16" rx="8" fill="#11161c" stroke="#30363d" stroke-width="1"/>
    <rect x="170" y="160" width="280" height="16" rx="8" fill="#58a6ff"/>
    <text x="486" y="172" class="sans value" text-anchor="end">116m 49s</text>

    <text x="22" y="204" class="sans label">Superpowers</text>
    <rect x="170" y="192" width="300" height="16" rx="8" fill="#11161c" stroke="#30363d" stroke-width="1"/>
    <rect x="170" y="192" width="300" height="16" rx="8" fill="#d29922"/>
    <text x="486" y="204" class="sans value" text-anchor="end">125m 06s</text>

    <text x="22" y="236" class="sans big">98 / 98</text>
    <text x="140" y="234" class="sans small">for all three on the 14-phase trust pack</text>
  </g>

  <text x="60" y="720" class="sans footer">Read the proof docs for details. The README shows only the shape of the truth.</text>
</svg>
