<?xml version="1.0" encoding="UTF-8"?>
<svg viewBox="0 0 800 260" xmlns="http://www.w3.org/2000/svg">

<rect width="800" height="260" fill="#201f1e"></rect>
<text x="400" y="32" text-anchor="middle" font-size="11" fill="#ecf6f9" letter-spacing="2.5">CHAIN OF CUSTODY</text>
<line x1="80" y1="140" x2="720" y2="140" stroke="#617e94" stroke-width="1.2"></line>

<g>
<circle cx="80" cy="140" r="6" fill="#201f1e" stroke="#617e94" stroke-width="1.4"></circle>
<g transform="translate(86,140)"><line x1="16" y1="-3" x2="16" y2="3" stroke="#ecf6f9" stroke-width=".8"></line><line x1="36" y1="-3" x2="36" y2="3" stroke="#ecf6f9" stroke-width=".8"></line><line x1="56" y1="-3" x2="56" y2="3" stroke="#ecf6f9" stroke-width=".8"></line><line x1="76" y1="-3" x2="76" y2="3" stroke="#ecf6f9" stroke-width=".8"></line><line x1="96" y1="-3" x2="96" y2="3" stroke="#ecf6f9" stroke-width=".8"></line></g>
<text x="80" y="112" text-anchor="middle" font-size="11" font-weight="600" fill="#617e94" letter-spacing="1.5">ASK</text>
<text x="80" y="170" text-anchor="middle" font-size="10" fill="#ecf6f9">original request</text>
<g transform="translate(80,200)"><rect x="-22" y="0" width="44" height="18" fill="#f7f7f7" stroke="#395984" stroke-width=".8"></rect><text x="0" y="12" text-anchor="middle" font-size="9" fill="#395984" font-weight="600">SEALED</text></g>
</g>
<g>
<circle cx="208" cy="140" r="6" fill="#201f1e" stroke="#617e94" stroke-width="1.4"></circle>
<g transform="translate(214,140)"><line x1="16" y1="-3" x2="16" y2="3" stroke="#ecf6f9" stroke-width=".8"></line><line x1="36" y1="-3" x2="36" y2="3" stroke="#ecf6f9" stroke-width=".8"></line><line x1="56" y1="-3" x2="56" y2="3" stroke="#ecf6f9" stroke-width=".8"></line><line x1="76" y1="-3" x2="76" y2="3" stroke="#ecf6f9" stroke-width=".8"></line><line x1="96" y1="-3" x2="96" y2="3" stroke="#ecf6f9" stroke-width=".8"></line></g>
<text x="208" y="112" text-anchor="middle" font-size="11" font-weight="600" fill="#617e94" letter-spacing="1.5">PLAN</text>
<text x="208" y="170" text-anchor="middle" font-size="10" fill="#ecf6f9">draft · review</text>
<g transform="translate(208,200)"><rect x="-22" y="0" width="44" height="18" fill="#f7f7f7" stroke="#395984" stroke-width=".8"></rect><text x="0" y="12" text-anchor="middle" font-size="9" fill="#395984" font-weight="600">SEALED</text></g>
</g>
<g>
<circle cx="336" cy="140" r="6" fill="#201f1e" stroke="#617e94" stroke-width="1.4"></circle>
<g transform="translate(342,140)"><line x1="16" y1="-3" x2="16" y2="3" stroke="#ecf6f9" stroke-width=".8"></line><line x1="36" y1="-3" x2="36" y2="3" stroke="#ecf6f9" stroke-width=".8"></line><line x1="56" y1="-3" x2="56" y2="3" stroke="#ecf6f9" stroke-width=".8"></line><line x1="76" y1="-3" x2="76" y2="3" stroke="#ecf6f9" stroke-width=".8"></line><line x1="96" y1="-3" x2="96" y2="3" stroke="#ecf6f9" stroke-width=".8"></line></g>
<text x="336" y="112" text-anchor="middle" font-size="11" font-weight="600" fill="#617e94" letter-spacing="1.5">EXEC</text>
<text x="336" y="170" text-anchor="middle" font-size="10" fill="#ecf6f9">phase-gated</text>
<g transform="translate(336,200)"><rect x="-22" y="0" width="44" height="18" fill="#f7f7f7" stroke="#395984" stroke-width=".8"></rect><text x="0" y="12" text-anchor="middle" font-size="9" fill="#395984" font-weight="600">SEALED</text></g>
</g>
<g>
<circle cx="464" cy="140" r="6" fill="#201f1e" stroke="#617e94" stroke-width="1.4"></circle>
<g transform="translate(470,140)"><line x1="16" y1="-3" x2="16" y2="3" stroke="#ecf6f9" stroke-width=".8"></line><line x1="36" y1="-3" x2="36" y2="3" stroke="#ecf6f9" stroke-width=".8"></line><line x1="56" y1="-3" x2="56" y2="3" stroke="#ecf6f9" stroke-width=".8"></line><line x1="76" y1="-3" x2="76" y2="3" stroke="#ecf6f9" stroke-width=".8"></line><line x1="96" y1="-3" x2="96" y2="3" stroke="#ecf6f9" stroke-width=".8"></line></g>
<text x="464" y="112" text-anchor="middle" font-size="11" font-weight="600" fill="#617e94" letter-spacing="1.5">DECIDE</text>
<text x="464" y="170" text-anchor="middle" font-size="10" fill="#ecf6f9">scope changes</text>
<g transform="translate(464,200)"><rect x="-22" y="0" width="44" height="18" fill="#f7f7f7" stroke="#395984" stroke-width=".8"></rect><text x="0" y="12" text-anchor="middle" font-size="9" fill="#395984" font-weight="600">SEALED</text></g>
</g>
<g>
<circle cx="592" cy="140" r="6" fill="#201f1e" stroke="#617e94" stroke-width="1.4"></circle>
<g transform="translate(598,140)"><line x1="16" y1="-3" x2="16" y2="3" stroke="#ecf6f9" stroke-width=".8"></line><line x1="36" y1="-3" x2="36" y2="3" stroke="#ecf6f9" stroke-width=".8"></line><line x1="56" y1="-3" x2="56" y2="3" stroke="#ecf6f9" stroke-width=".8"></line><line x1="76" y1="-3" x2="76" y2="3" stroke="#ecf6f9" stroke-width=".8"></line><line x1="96" y1="-3" x2="96" y2="3" stroke="#ecf6f9" stroke-width=".8"></line></g>
<text x="592" y="112" text-anchor="middle" font-size="11" font-weight="600" fill="#617e94" letter-spacing="1.5">VERIFY</text>
<text x="592" y="170" text-anchor="middle" font-size="10" fill="#ecf6f9">evidence</text>
<g transform="translate(592,200)"><rect x="-22" y="0" width="44" height="18" fill="#f7f7f7" stroke="#395984" stroke-width=".8"></rect><text x="0" y="12" text-anchor="middle" font-size="9" fill="#395984" font-weight="600">SEALED</text></g>
</g>
<g>
<circle cx="720" cy="140" r="6" fill="#201f1e" stroke="#617e94" stroke-width="1.4"></circle>

<text x="720" y="112" text-anchor="middle" font-size="11" font-weight="600" fill="#617e94" letter-spacing="1.5">LAND</text>
<text x="720" y="170" text-anchor="middle" font-size="10" fill="#ecf6f9">repo truth</text>
<g transform="translate(720,200)"><rect x="-22" y="0" width="44" height="18" fill="#f7f7f7" stroke="#395984" stroke-width=".8"></rect><text x="0" y="12" text-anchor="middle" font-size="9" fill="#395984" font-weight="600">SEALED</text></g>
</g>
</svg>