<?xml version="1.0" encoding="UTF-8"?>
<svg viewBox="0 0 960 540" xmlns="http://www.w3.org/2000/svg" role="img" aria-label="Drift compounds without receipts; Plan Enforcer anchors every stage to a file on disk">
  <defs>
    <pattern id="gridp" width="24" height="24" patternUnits="userSpaceOnUse">
      <path d="M24 0H0V24" fill="none" stroke="rgba(237,228,211,.04)" stroke-width="1"/>
    </pattern>
  </defs>
  <rect width="960" height="540" fill="#111214"/>
  <rect width="960" height="540" fill="url(#gridp)"/>

  <rect x="0" y="0" width="960" height="30" fill="#111214"/>
  <rect x="0" y="30" width="960" height="2" fill="#1aadd9"/>
  <g font-family="ui-monospace,Menlo,Consolas,monospace" font-size="10" letter-spacing="3">
    <text x="20" y="20" fill="#1aadd9">CASE PE-0427</text>
    <text x="480" y="20" text-anchor="middle" fill="#d0d6f0">CHAIN OF CUSTODY · AI-ASSISTED IMPLEMENTATION</text>
    <text x="940" y="20" text-anchor="end" fill="#a5aacc">FIG. 01</text>
  </g>

  <g font-family="ui-monospace,Menlo,Consolas,monospace">
    <text x="30" y="60" font-size="11" letter-spacing="4" fill="#1aadd9">WITHOUT — DRIFT COMPOUNDS</text>
    <text x="30" y="80" font-family="ui-sans-serif,system-ui,sans-serif" font-size="18" font-weight="700" fill="#d0d6f0">Every missing receipt is a story you can't reconstruct.</text>
  </g>

  <g transform="translate(0,210)">
    <line x1="40" y1="0" x2="920" y2="0" stroke="rgba(237,228,211,.25)" stroke-dasharray="3 4"/>
    <circle cx="40" cy="0" r="5" fill="#d0d6f0"/>
    <text x="40" y="22" font-family="ui-monospace,Menlo,Consolas,monospace" font-size="10" letter-spacing="2" fill="#d0d6f0">ASK</text>
    <text x="40" y="36" font-family="ui-monospace,Menlo,Consolas,monospace" font-size="9" fill="#a5aacc">t0</text>
    <g transform="translate(920,0)">
      <circle r="11" fill="none" stroke="#1aadd9" stroke-width="1.5"/>
      <line x1="-6" y1="-6" x2="6" y2="6" stroke="#1aadd9" stroke-width="1.5"/>
      <line x1="-6" y1="6" x2="6" y2="-6" stroke="#1aadd9" stroke-width="1.5"/>
      <text x="0" y="28" text-anchor="middle" font-family="ui-monospace,Menlo,Consolas,monospace" font-size="10" letter-spacing="2" fill="#1aadd9">DONE?</text>
      <text x="0" y="42" text-anchor="middle" font-family="ui-monospace,Menlo,Consolas,monospace" font-size="9" fill="#a5aacc">unverifiable</text>
    </g>
    <path d="M40 0 C 140 0, 180 -40, 240 -22 S 360 -58, 420 -30 S 560 -74, 620 -40 S 800 -68, 920 0" fill="none" stroke="#1aadd9" stroke-width="2.2" opacity=".9"/>
    <path d="M40 0 C 140 0, 180 -40, 240 -22 S 360 -58, 420 -30 S 560 -74, 620 -40 S 800 -68, 920 0 L 920 0 L 40 0 Z" fill="#1aadd9" opacity=".06"/>
  </g>

  <g font-family="ui-monospace,Menlo,Consolas,monospace" font-size="10">
    <g transform="translate(130,100)">
      <rect width="170" height="54" fill="#171a1d" stroke="#1aadd9" stroke-width="1"/>
      <rect x="0" y="0" width="4" height="54" fill="#1aadd9"/>
      <text x="12" y="18" fill="#1aadd9" font-size="9" letter-spacing="2">FAILURE · 01</text>
      <text x="12" y="34" fill="#d0d6f0" font-weight="700">SCOPE NARROWED</text>
      <text x="12" y="48" fill="#a5aacc" font-size="9">no receipt of the narrowing</text>
      <line x1="85" y1="54" x2="190" y2="108" stroke="#1aadd9" stroke-dasharray="2 3"/>
    </g>
    <g transform="translate(340,100)">
      <rect width="170" height="54" fill="#171a1d" stroke="#1aadd9" stroke-width="1"/>
      <rect x="0" y="0" width="4" height="54" fill="#1aadd9"/>
      <text x="12" y="18" fill="#1aadd9" font-size="9" letter-spacing="2">FAILURE · 02</text>
      <text x="12" y="34" fill="#d0d6f0" font-weight="700">DECISION MADE</text>
      <text x="12" y="48" fill="#a5aacc" font-size="9">no record of the tradeoff</text>
      <line x1="85" y1="54" x2="80" y2="104" stroke="#1aadd9" stroke-dasharray="2 3"/>
    </g>
    <g transform="translate(550,100)">
      <rect width="170" height="54" fill="#171a1d" stroke="#1aadd9" stroke-width="1"/>
      <rect x="0" y="0" width="4" height="54" fill="#1aadd9"/>
      <text x="12" y="18" fill="#1aadd9" font-size="9" letter-spacing="2">FAILURE · 03</text>
      <text x="12" y="34" fill="#d0d6f0" font-weight="700">STALE RESUME</text>
      <text x="12" y="48" fill="#a5aacc" font-size="9">context already drifted</text>
      <line x1="85" y1="54" x2="70" y2="105" stroke="#1aadd9" stroke-dasharray="2 3"/>
    </g>
    <g transform="translate(760,100)">
      <rect width="170" height="54" fill="#171a1d" stroke="#1aadd9" stroke-width="1"/>
      <rect x="0" y="0" width="4" height="54" fill="#1aadd9"/>
      <text x="12" y="18" fill="#1aadd9" font-size="9" letter-spacing="2">FAILURE · 04</text>
      <text x="12" y="34" fill="#d0d6f0" font-weight="700">CLOSED EARLY</text>
      <text x="12" y="48" fill="#a5aacc" font-size="9">repo differs from plan at close</text>
      <line x1="85" y1="54" x2="80" y2="108" stroke="#1aadd9" stroke-dasharray="2 3"/>
    </g>
  </g>

  <line x1="0" y1="280" x2="960" y2="280" stroke="#1aadd9" stroke-dasharray="2 6" opacity=".5"/>
  <rect x="40" y="270" width="120" height="20" fill="#090a0b"/>
  <text x="100" y="284" text-anchor="middle" font-family="ui-monospace,Menlo,Consolas,monospace" font-size="10" letter-spacing="4" fill="#1aadd9">CUT LINE</text>

  <g font-family="ui-monospace,Menlo,Consolas,monospace">
    <text x="30" y="318" font-size="11" letter-spacing="4" fill="#2dbe86">WITH PLAN ENFORCER — CUSTODY HOLDS</text>
    <text x="30" y="338" font-family="ui-sans-serif,system-ui,sans-serif" font-size="18" font-weight="700" fill="#d0d6f0">Every stage leaves a receipt. Every receipt is on disk.</text>
  </g>

  <g font-family="ui-monospace,Menlo,Consolas,monospace" font-size="9">
    <g transform="translate(40,360)">
      <rect width="140" height="72" fill="#d0d6f0"/>
      <rect y="0" width="140" height="16" fill="#b4b9dc"/>
      <text x="8" y="12" font-size="9" letter-spacing="2" fill="#090a0b">STAGE 01 · ASK</text>
      <text x="8" y="32" font-size="10" font-weight="700" fill="#090a0b">ask.md</text>
      <text x="8" y="48" font-size="9" fill="#212a3f">original prompt</text>
      <text x="8" y="60" font-size="9" fill="#212a3f">+ sha256(intent)</text>
      <circle cx="128" cy="10" r="3" fill="#ffd26a"/>
    </g>
    <g transform="translate(188,360)">
      <rect width="140" height="72" fill="#d0d6f0"/>
      <rect y="0" width="140" height="16" fill="#b4b9dc"/>
      <text x="8" y="12" font-size="9" letter-spacing="2" fill="#090a0b">STAGE 02 · PLAN</text>
      <text x="8" y="32" font-size="10" font-weight="700" fill="#090a0b">plan.md</text>
      <text x="8" y="48" font-size="9" fill="#212a3f">contract + gates</text>
      <text x="8" y="60" font-size="9" fill="#212a3f">frozen hash</text>
      <circle cx="128" cy="10" r="3" fill="#ffd26a"/>
    </g>
    <g transform="translate(336,360)">
      <rect width="140" height="72" fill="#d0d6f0"/>
      <rect y="0" width="140" height="16" fill="#b4b9dc"/>
      <text x="8" y="12" font-size="9" letter-spacing="2" fill="#090a0b">STAGE 03 · EXEC</text>
      <text x="8" y="32" font-size="10" font-weight="700" fill="#090a0b">exec.log</text>
      <text x="8" y="48" font-size="9" fill="#212a3f">step trace</text>
      <text x="8" y="60" font-size="9" fill="#212a3f">tool + sha per line</text>
      <circle cx="128" cy="10" r="3" fill="#0023f0"/>
    </g>
    <g transform="translate(484,360)">
      <rect width="140" height="72" fill="#d0d6f0"/>
      <rect y="0" width="140" height="16" fill="#b4b9dc"/>
      <text x="8" y="12" font-size="9" letter-spacing="2" fill="#090a0b">STAGE 04 · DECIDE</text>
      <text x="8" y="32" font-size="10" font-weight="700" fill="#090a0b">decisions.md</text>
      <text x="8" y="48" font-size="9" fill="#212a3f">scope delta</text>
      <text x="8" y="60" font-size="9" fill="#212a3f">+ justification</text>
      <circle cx="128" cy="10" r="3" fill="#0023f0"/>
    </g>
    <g transform="translate(632,360)">
      <rect width="140" height="72" fill="#d0d6f0"/>
      <rect y="0" width="140" height="16" fill="#b4b9dc"/>
      <text x="8" y="12" font-size="9" letter-spacing="2" fill="#090a0b">STAGE 05 · VERIFY</text>
      <text x="8" y="32" font-size="10" font-weight="700" fill="#090a0b">verify.md</text>
      <text x="8" y="48" font-size="9" fill="#212a3f">repo vs plan diff</text>
      <text x="8" y="60" font-size="9" fill="#212a3f">gate results</text>
      <circle cx="128" cy="10" r="3" fill="#2dbe86"/>
    </g>
    <g transform="translate(780,360)">
      <rect width="140" height="72" fill="#d0d6f0" stroke="#2dbe86" stroke-width="2"/>
      <rect y="0" width="140" height="16" fill="#2dbe86"/>
      <text x="8" y="12" font-size="9" letter-spacing="2" fill="#090a0b" font-weight="700">STAGE 06 · LAND</text>
      <text x="8" y="32" font-size="10" font-weight="700" fill="#090a0b">closure.md</text>
      <text x="8" y="48" font-size="9" fill="#212a3f">repo sha matches</text>
      <text x="8" y="60" font-size="9" fill="#212a3f">plan contract · SEALED</text>
      <circle cx="128" cy="10" r="3" fill="#090a0b"/>
    </g>
  </g>

  <g transform="translate(0,462)">
    <line x1="40" y1="0" x2="920" y2="0" stroke="#d0d6f0" stroke-width="1.5" opacity=".4"/>
    <g stroke="#d0d6f0" stroke-width="1.5">
      <line x1="110" y1="-6" x2="110" y2="6"/>
      <line x1="258" y1="-6" x2="258" y2="6"/>
      <line x1="406" y1="-6" x2="406" y2="6"/>
      <line x1="554" y1="-6" x2="554" y2="6"/>
      <line x1="702" y1="-6" x2="702" y2="6"/>
      <line x1="850" y1="-6" x2="850" y2="6"/>
    </g>
    <text x="40" y="24" font-family="ui-monospace,Menlo,Consolas,monospace" font-size="9" letter-spacing="3" fill="#a5aacc">CUSTODY THREAD</text>
    <text x="920" y="24" text-anchor="end" font-family="ui-monospace,Menlo,Consolas,monospace" font-size="9" letter-spacing="3" fill="#2dbe86">CONTINUOUS · AUDITABLE · REPLAYABLE</text>
  </g>

  <g transform="translate(850,508)">
    <rect x="-70" y="-16" width="140" height="28" fill="none" stroke="#1aadd9" stroke-width="1.5"/>
    <text x="0" y="4" text-anchor="middle" font-family="ui-monospace,Menlo,Consolas,monospace" font-size="11" letter-spacing="4" fill="#1aadd9" font-weight="700">SEALED · PE-0427</text>
  </g>
</svg>
