<?xml version="1.0" encoding="UTF-8"?>
<svg viewBox="0 0 800 320" xmlns="http://www.w3.org/2000/svg">

<rect width="800" height="320" fill="#201f1e"></rect>
<g>
<text x="32" y="36" font-size="11" fill="#ecf6f9" letter-spacing="2">WITHOUT</text>
<text x="32" y="62" font-size="20" font-weight="600" fill="#617e94">Drift compounds.</text>
<g transform="translate(32,110)">
<line x1="0" y1="40" x2="320" y2="40" stroke="#ecf6f9" stroke-width="1" stroke-dasharray="3 4" opacity=".5"></line>
<path d="M0 40 C 40 40, 60 20, 100 30 S 160 80, 200 60 S 260 10, 320 90" fill="none" stroke="#617e94" stroke-width="1.5"></path>
<circle cx="0" cy="40" r="3.5" fill="#617e94"></circle>
<text x="0" y="22" font-size="10" fill="#ecf6f9">ask</text>
<circle cx="320" cy="90" r="4" fill="none" stroke="#617e94" stroke-width="1.5"></circle>
<text x="300" y="112" font-size="10" fill="#ecf6f9">landed</text>
</g>
<g transform="translate(32,240)" font-size="10" fill="#ecf6f9">
<text y="0">· scope silently narrows</text>
<text y="16">· decisions unrecorded</text>
<text y="32">· resume from stale context</text>
</g>
</g>
<line x1="400" y1="24" x2="400" y2="296" stroke="#ecf6f9" stroke-dasharray="2 3" opacity=".5"></line>
<g>
<text x="432" y="36" font-size="11" fill="#f7f7f7" letter-spacing="2">WITH PLAN ENFORCER</text>
<text x="432" y="62" font-size="20" font-weight="600" fill="#617e94">Fidelity preserved.</text>
<g transform="translate(432,110)">
<line x1="0" y1="40" x2="320" y2="40" stroke="#617e94" stroke-width="1.5"></line>
<line x1="0" y1="44" x2="320" y2="44" stroke="#617e94" stroke-width="1.5"></line>

<g transform="translate(8,42)">
<rect x="-18" y="-16" width="36" height="24" fill="#395984" stroke="#f7f7f7" stroke-width="1"></rect>
<text x="0" y="0" text-anchor="middle" font-size="9" font-weight="600" fill="#f7f7f7">ASK</text>
</g>
<g transform="translate(86,42)">
<rect x="-18" y="-16" width="36" height="24" fill="#395984" stroke="#f7f7f7" stroke-width="1"></rect>
<text x="0" y="0" text-anchor="middle" font-size="9" font-weight="600" fill="#f7f7f7">PLAN</text>
</g>
<g transform="translate(164,42)">
<rect x="-18" y="-16" width="36" height="24" fill="#395984" stroke="#f7f7f7" stroke-width="1"></rect>
<text x="0" y="0" text-anchor="middle" font-size="9" font-weight="600" fill="#f7f7f7">EXEC</text>
</g>
<g transform="translate(242,42)">
<rect x="-18" y="-16" width="36" height="24" fill="#395984" stroke="#f7f7f7" stroke-width="1"></rect>
<text x="0" y="0" text-anchor="middle" font-size="9" font-weight="600" fill="#f7f7f7">VERIFY</text>
</g>
<g transform="translate(320,42)">
<rect x="-18" y="-16" width="36" height="24" fill="#395984" stroke="#f7f7f7" stroke-width="1"></rect>
<text x="0" y="0" text-anchor="middle" font-size="9" font-weight="600" fill="#f7f7f7">LAND</text>
</g>
</g>
<g transform="translate(432,240)" font-size="10" fill="#ecf6f9">
<text y="0">· ledger kept on disk</text>
<text y="16">· decisions tracked by design</text>
<text y="32">· resume is first-class</text>
</g>
</g>
</svg>