<?xml version="1.0" encoding="UTF-8"?>
<svg viewBox="0 0 800 240" xmlns="http://www.w3.org/2000/svg">

<rect width="800" height="240" fill="#201f1e"></rect>
<text x="40" y="36" font-size="11" fill="#ecf6f9" letter-spacing="2">WORKFLOW</text>

<g transform="translate(40,80)">
<rect x="0" y="0" width="120" height="60" fill="none" stroke="#617e94" stroke-width="1.2"></rect>
<text x="60" y="26" text-anchor="middle" font-size="10" fill="#ecf6f9">cmd 1</text>
<text x="60" y="46" text-anchor="middle" font-size="14" font-weight="600" fill="#617e94">discuss</text>
<g transform="translate(120,30)"><line x1="0" y1="0" x2="24" y2="0" stroke="#617e94" stroke-width="1"></line><path d="M20 -4 L 26 0 L 20 4" fill="#617e94"></path></g>
</g>
<g transform="translate(190,80)">
<rect x="0" y="0" width="120" height="60" fill="none" stroke="#617e94" stroke-width="1.2"></rect>
<text x="60" y="26" text-anchor="middle" font-size="10" fill="#ecf6f9">cmd 2</text>
<text x="60" y="46" text-anchor="middle" font-size="14" font-weight="600" fill="#617e94">draft</text>
<g transform="translate(120,30)"><line x1="0" y1="0" x2="24" y2="0" stroke="#617e94" stroke-width="1"></line><path d="M20 -4 L 26 0 L 20 4" fill="#617e94"></path></g>
</g>
<g transform="translate(340,80)">
<rect x="0" y="0" width="120" height="60" fill="none" stroke="#617e94" stroke-width="1.2"></rect>
<text x="60" y="26" text-anchor="middle" font-size="10" fill="#ecf6f9">cmd 3</text>
<text x="60" y="46" text-anchor="middle" font-size="14" font-weight="600" fill="#617e94">review</text>
<g transform="translate(120,30)"><line x1="0" y1="0" x2="24" y2="0" stroke="#617e94" stroke-width="1"></line><path d="M20 -4 L 26 0 L 20 4" fill="#617e94"></path></g>
</g>
<g transform="translate(490,80)">
<rect x="0" y="0" width="120" height="60" fill="none" stroke="#617e94" stroke-width="1.2"></rect>
<text x="60" y="26" text-anchor="middle" font-size="10" fill="#ecf6f9">cmd 4</text>
<text x="60" y="46" text-anchor="middle" font-size="14" font-weight="600" fill="#617e94">execute</text>
<g transform="translate(120,30)"><line x1="0" y1="0" x2="24" y2="0" stroke="#617e94" stroke-width="1"></line><path d="M20 -4 L 26 0 L 20 4" fill="#617e94"></path></g>
</g>
<g transform="translate(640,80)">
<rect x="0" y="0" width="120" height="60" fill="none" stroke="#617e94" stroke-width="1.2"></rect>
<text x="60" y="26" text-anchor="middle" font-size="10" fill="#ecf6f9">cmd 5</text>
<text x="60" y="46" text-anchor="middle" font-size="14" font-weight="600" fill="#617e94">verify</text>

</g>
<g transform="translate(40,180)">
<rect x="0" y="0" width="720" height="30" fill="#f7f7f7" stroke="#395984" stroke-width=".8"></rect>
<text x="12" y="19" font-size="11" fill="#395984" font-weight="600">BYO plan</text>
<text x="70" y="19" font-size="11" fill="#395984">— import from GSD · Superpowers · markdown · anywhere</text>
<g transform="translate(680,15)"><line x1="0" y1="0" x2="-600" y2="0" stroke="#395984" stroke-width=".8" stroke-dasharray="3 3"></line><path d="M-4 -4 L 0 0 L -4 4" fill="#395984"></path></g>
</g>
</svg>